<svg viewBox="0 0 512 512" xmlns="http://www.w3.org/2000/svg">
  <path d="m193.27 72.6 16.44-65.76h92.58l16.46 65.82c7.7 2.64 15.23 5.75 22.53 9.34l58.17-34.9 65.48 65.48-34.91 58.17c3.58 7.3 6.69 14.82 9.32 22.51l65.82 16.45v92.58l-65.76 16.45c-2.66 7.76-5.79 15.3-9.37 22.59l34.87 58.12-65.48 65.48-58.13-34.88c-7.28 3.57-14.81 6.7-22.56 9.35l-16.44 65.76h-92.58l-16.45-65.76c-7.76-2.66-15.3-5.79-22.59-9.37l-58.12 34.87-65.48-65.48 34.88-58.13c-3.57-7.28-6.7-14.81-9.35-22.56l-65.76-16.44v-92.58l65.76-16.45c2.66-7.76 5.79-15.3 9.37-22.59l-34.87-58.12 65.48-65.48 58.13 34.88c7.28-3.57 14.81-6.7 22.56-9.35zm62.73 261.17c42.95 0 77.77-34.82 77.77-77.77s-34.82-77.77-77.77-77.77-77.77 34.82-77.77 77.77 34.82 77.77 77.77 77.77z" fill="#aaaaaa"/>
</svg>