<svg viewBox="0 0 1808 288" xmlns="http://www.w3.org/2000/svg">
  <style>
    @import "https://fonts.googleapis.com/css2?family=Rubik&amp;display=swap";
    text {
      fill: #cccccc;
      font-size: 180px;
      font-family: -apple-system, BlinkMacSystemFont, "Rubik", sans-serif;
      cursor: default;
      user-select: none;
      -webkit-user-select: none;
    }
  </style>
  <defs>
    <linearGradient id="wood" x1="-24.9537" y1="263.137" x2="23.7948" y2="312.392" gradientUnits="userSpaceOnUse">
      <stop stop-color="#e5cfad" offset="0"/>
      <stop stop-color="#dec196" offset="0.25"/>
      <stop stop-color="#daba8a" offset="0.5"/>
      <stop stop-color="#c4a77c" offset="0.75"/>
      <stop stop-color="#988260" offset="1"/>
    </linearGradient>
    <linearGradient id="paint" x1="33.0968" y1="203.339" x2="83.3912" y2="253.968" gradientUnits="userSpaceOnUse">
      <stop stop-color="#f3ac4d" offset="0"/>
      <stop stop-color="#f0941a" offset="0.25"/>
      <stop stop-color="#ee8800" offset="0.5"/>
      <stop stop-color="#d67a00" offset="0.75"/>
      <stop stop-color="#a65f00" offset="1"/>
    </linearGradient>
    <linearGradient id="metal" x1="163.342" y1="73.503" x2="213.594" y2="124.088" gradientUnits="userSpaceOnUse">
      <stop stop-color="#d5d5d5" offset="0"/>
      <stop stop-color="#c9c9c9" offset="0.25"/>
      <stop stop-color="#c3c3c3" offset="0.5"/>
      <stop stop-color="#afafaf" offset="0.75"/>
      <stop stop-color="#888888" offset="1"/>
    </linearGradient>
    <linearGradient id="eraser" x1="193.657" y1="42.7175" x2="244.381" y2="93.7789" gradientUnits="userSpaceOnUse">
      <stop stop-color="#db7c88" offset="0"/>
      <stop stop-color="#d15766" offset="0.25"/>
      <stop stop-color="#cc4455" offset="0.5"/>
      <stop stop-color="#b73d4c" offset="0.75"/>
      <stop stop-color="#8e2f3b" offset="1"/>
    </linearGradient>
  </defs>
  <text x="360" y="216.15">Smart Text Editor</text>
  <path d="m92.531 244.69-66.094 30.937-14.062-14.625 29.812-64.969 50.344 48.657z" fill="url(#wood)"/>
  <path d="m29.531 274.22-29.531 13.781 13.781-30.094c2.3066 4.064 3.1867 6.518 6.4688 9.844 3.1489 3.191 9.2812 6.469 9.2812 6.469z" fill="#2a2a2a"/>
  <path d="m173.89 63.562c-5.49 5.49 1.248 21.13 15.052 34.932 13.802 13.803 29.442 20.541 34.933 15.051l-130.35 130.35c-5.4905 5.49-21.13-1.249-34.934-15.051-13.803-13.803-20.541-29.443-15.051-34.933l130.35-130.35z" fill="url(#paint)"/>
  <path d="m204.5 32.625c-5.527 5.5267 1.256 21.271 15.151 35.165 13.895 13.895 29.639 20.678 35.165 15.152l-31.009 31.009c-5.527 5.526-21.271-1.257-35.165-15.152-13.895-13.895-20.678-29.639-15.152-35.165l31.01-31.009z" fill="url(#metal)"/>
  <path d="m234.56 2.25c-5.567 5.5671 1.125 21.45 15.15 35.476 14.026 14.025 29.909 20.883 35.476 15.315l-30.525 30.525c-5.567 5.567-21.451-1.2899-35.476-15.315-14.025-14.025-20.882-29.908-15.315-35.476l30.69-30.525z" fill="url(#eraser)"/>
  <path d="m234.24 2.4999c5.557-5.5752 21.41 1.2916 35.409 15.337 14 14.046 20.844 29.951 15.287 35.527-5.557 5.5753-21.41-1.2916-35.41-15.337-13.999-14.046-20.843-29.951-15.286-35.527z" fill="#db7c88"/>
</svg>