<svg viewBox="0 0 512 512" xmlns="http://www.w3.org/2000/svg">
  <path d="m141.18 359.57c-0.66 0-1.49-0.22-2.49-0.66-0.99-0.44-2.03-0.99-3.13-1.65l-118.98-80.97c-3.09-2.21-5.46-4.36-7.11-6.45-1.65-2.1-2.47-4.69-2.47-7.78v-10.23c0-3.31 0.82-6.01 2.47-8.1s4.02-4.25 7.11-6.46l118.98-80.97c1.1-0.44 2.14-0.88 3.13-1.32 1-0.44 1.83-0.66 2.49-0.66 1.99 0 3.64 0.61 4.96 1.83 1.32 1.21 1.98 2.8 1.98 4.78v35.7c0 3.53-1 6.23-2.98 8.11-1.98 1.87-4.07 3.46-6.27 4.78l-72.06 47.25 72.06 47.6c2.2 1.32 4.29 2.86 6.27 4.63 1.98 1.76 2.98 4.4 2.98 7.93v35.7c0 1.98-0.66 3.63-1.98 4.96-1.32 1.32-2.97 1.98-4.96 1.98zm41.64 40.97c-1.98 0-3.69-0.71-5.13-2.14-1.42-1.43-2.14-3.03-2.14-4.79 0-1.1 0.33-2.2 0.99-3.3l111.71-269.37c0.89-1.76 2.22-3.53 3.98-5.29 1.75-1.77 4.4-2.65 7.92-2.65h29.75c1.98 0 3.63 0.72 4.95 2.16 1.33 1.43 1.99 3.02 1.99 4.78 0 0.89-0.22 1.99-0.66 3.31l-112.37 269.37c-0.66 1.55-1.93 3.25-3.81 5.12-1.87 1.87-4.56 2.8-8.09 2.8h-29.09zm188.06-40.97c-1.75 0-3.3-0.66-4.63-1.98-1.32-1.33-1.98-2.98-1.98-4.96v-35.7c0-3.53 0.99-6.17 2.97-7.93 1.99-1.77 4.09-3.31 6.3-4.63l71.71-47.6-71.71-47.25c-2.21-1.32-4.31-2.91-6.3-4.78-1.98-1.88-2.97-4.58-2.97-8.11v-35.7c0-1.98 0.66-3.57 1.98-4.78 1.33-1.22 2.88-1.83 4.63-1.83 0.88 0 1.82 0.22 2.81 0.66 1 0.44 1.93 0.88 2.81 1.32l119.32 80.97c3.3 2.21 5.73 4.37 7.27 6.46s2.32 4.79 2.32 8.1v10.23c0 3.09-0.78 5.68-2.32 7.78-1.54 2.09-3.97 4.24-7.27 6.45l-119.32 80.97c-0.88 0.66-1.81 1.21-2.81 1.65-0.99 0.44-1.93 0.66-2.81 0.66z" fill="#aaaaaa"/>
</svg>