<svg viewBox="0 0 512 512" xmlns="http://www.w3.org/2000/svg">
  <path d="m198.36 18v43.917h-154.81v308.88h424.9v-75.391h43.551v66.242c-0.029 13.167-4.952 25.852-13.813 35.592-8.86 9.739-21.025 15.837-34.13 17.108l-5.123 0.366h-65.876l23.788 26.351v52.7h-321.69v-52.7l23.788-26.351h-66.241c-13.19 0.054-25.922-4.84-35.679-13.717-9.7572-8.876-15.831-21.089-17.022-34.225v-296.07c-0.053852-13.19 4.8408-25.922 13.717-35.679 8.8764-9.7572 21.089-15.831 34.226-17.022h150.42zm174.94 0v186.65l64.046-66.241 38.427 39.525-128.09 132.85-128.09-132.85 38.427-39.891 64.046 66.607v-186.65h51.236z" fill="#aaaaaa"/>
</svg>