<svg t="1730993827187" class="icon" viewBox="0 0 1024 1024" version="1.1" xmlns="http://www.w3.org/2000/svg" p-id="1654" width="200" height="200"><path d="M412.0896 962.2016c-52.8 0-105.5936 0.0064-158.3936 0-61.8176-0.0064-113.1712-41.0304-126.496-101.408-1.8432-8.3648-2.816-17.0816-2.8992-25.6448-0.3136-33.2736-0.6656-66.5664 0.0384-99.8336 1.3248-62.4768 24.5184-115.8208 69.6192-159.136 33.1456-31.8336 72.736-51.4624 118.2016-58.6368 11.6416-1.8368 23.5136-2.9504 35.2896-3.04 43.9424-0.3328 87.8976-0.5952 131.8336 0.0192 98.7392 1.3824 184.0768 66.7456 211.8336 161.5936 6.0224 20.576 8.7872 41.632 8.864 63.0272 0.1152 31.36 0.0576 62.72 0.0256 94.0736-0.064 61.5296-41.7472 113.2928-101.9392 126.0928-8.8896 1.8944-18.1632 2.72-27.264 2.7584-52.9088 0.2624-105.8112 0.1344-158.7136 0.1344z m0.0896-63.8272c53.216 0 106.4384 0.0128 159.6544-0.0256 3.1872 0 6.3872-0.2368 9.5488-0.6208 30.0864-3.6352 54.7584-31.3664 54.7904-61.6128 0.0384-34.1248 0.0384-68.256-0.0256-102.3808-0.0064-4.4672-0.3008-8.9536-0.8192-13.3888-4.1856-35.5136-18.2976-66.528-43.0912-92.3328-31.2576-32.5312-69.5936-49.44-114.8032-49.76-44.0448-0.3072-88.0896-0.096-132.1408-0.032-4.9984 0.0064-10.0288 0.2432-14.9888 0.8192-35.4048 4.1152-66.3488 18.1248-92.1344 42.7776-32.8832 31.4368-49.8112 70.0352-50.1248 115.616-0.224 32.3136-0.0576 64.6272-0.0128 96.9472 0.0064 3.0784 0.224 6.176 0.6272 9.2288 4.0256 30.688 31.424 54.7584 62.2784 54.7648 53.7408 0.0064 107.4944 0 161.2416 0zM412.0832 450.2016c-106.3296-0.608-191.8336-85.5872-191.776-192.0064 0.0576-106.6176 85.8112-191.6672 191.9488-191.744 105.824-0.0768 191.8912 86.0928 191.6736 191.7568-0.2176 106.3936-85.4976 191.392-191.8464 191.9936z m128.096-191.9168c0.4928-69.504-56.2048-126.5856-124.9728-128.1792-71.8464-1.664-129.7792 56.0768-131.3024 125.1392-1.5872 71.9232 56.256 129.7216 125.2224 131.2256 72.6528 1.5808 131.6608-57.7664 131.0528-128.1856z" p-id="1655" fill="#ffffff"></path><path d="M715.7376 962.2784c6.1824-8.576 12.0704-16.7552 17.984-24.9216 8.0704-11.1424 14.016-23.3536 18.0672-36.4672 0.64-2.0608 1.5296-2.624 3.5392-2.5664 10.464 0.3008 20.8256 0.0256 30.8544-3.7376 25.4144-9.536 41.9968-33.1776 41.984-60.2432-0.0192-34.4512 0.5696-68.9152-0.256-103.3472-0.8192-34.2528-12.7296-64.9344-33.9712-91.8208-18.7264-23.7056-42.304-40.8832-70.6752-51.4304-1.28-0.4736-2.5216-1.5424-3.3664-2.6496-10.4896-13.8048-20.2624-28.2112-31.5264-41.344-9.1008-10.6112-19.9744-19.6992-29.92-29.3312-0.3456 0.0896 0.0832-0.1088 0.5184-0.1216 48.2432-1.024 93.0368 10.5216 133.184 37.7024 50.0288 33.8688 81.7152 80.4736 94.8736 139.5392 3.6032 16.1792 5.0112 32.5952 5.0432 49.1328 0.0576 29.9712-0.0896 59.9424 0.0448 89.9136 0.1344 29.6832-7.776 56.7808-25.8432 80.5056-20.7104 27.1936-47.9936 43.8784-81.8304 49.2928-7.8528 1.2544-15.8848 1.6768-23.8528 1.824-14.8096 0.2752-29.6384 0.0704-44.8512 0.0704zM583.616 67.8912c52.064-7.2256 129.5872 11.136 178.3168 81.2736 46.0672 66.2976 45.376 155.0912-1.6576 220.6016-49.5808 69.056-126.5216 85.9456-176.8896 78.8544 1.3696-1.2352 2.4448-2.2144 3.5328-3.1872 19.4624-17.4784 33.8112-38.9952 47.9872-60.6592 0.832-1.2736 2.3296-2.4704 3.7632-2.9248 49.3952-15.7632 81.1968-48.6016 91.0016-99.4944 9.6256-49.9648-6.976-91.9424-46.1888-124.5568-13.2544-11.0272-28.5696-18.3808-45.1392-23.1552-1.3312-0.384-2.6752-1.6448-3.4496-2.8544-12.2816-19.0848-25.152-37.7216-40.992-54.0992-3.232-3.3472-6.7264-6.4192-10.2848-9.7984z" p-id="1656" fill="#ffffff"></path></svg>