<?xml version="1.0" standalone="no"?><!DOCTYPE svg PUBLIC "-//W3C//DTD SVG 1.1//EN" "http://www.w3.org/Graphics/SVG/1.1/DTD/svg11.dtd"><svg t="1717639274039" class="icon" viewBox="0 0 1024 1024" version="1.1" xmlns="http://www.w3.org/2000/svg" p-id="5781" xmlns:xlink="http://www.w3.org/1999/xlink" width="16" height="16"><path d="M894.6 532.3c-17.5 0-31.7 14.2-31.7 31.7v251c0 23.3-19 42.3-42.3 42.3H203.7c-23.3 0-42.3-19-42.3-42.3V233.7c0-23.3 19-42.3 42.3-42.3h270.7c17.5 0 31.7-14.2 31.7-31.7S492 128 474.4 128H203.7C145.4 128 98 175.4 98 233.7V815c0 58.3 47.4 105.7 105.7 105.7h616.9c58.3 0 105.7-47.4 105.7-105.7V564c0-17.5-14.2-31.7-31.7-31.7z" p-id="5782" fill="#515151"></path><path d="M253.1 688.9c98.5-93.2 197.9-237.3 373.7-228 12.4 0.7 22.1 10.4 22.1 22.9v61c-0.1 19.2 22.2 29.9 37.1 17.8l227.9-184.3c11.3-9.1 11.3-26.4-0.1-35.5L687 138.8c-14.9-12-38.1-1.4-38.2 17.7v61.8c0 11.6-7.9 20-19.3 22.6-302.5 69-379 423.6-376.4 448z" p-id="5783" fill="#515151"></path></svg>