<?xml version="1.0" standalone="no"?><!DOCTYPE svg PUBLIC "-//W3C//DTD SVG 1.1//EN" "http://www.w3.org/Graphics/SVG/1.1/DTD/svg11.dtd"><svg t="1733147899657" class="icon" viewBox="0 0 1024 1024" version="1.1" xmlns="http://www.w3.org/2000/svg" p-id="7444" xmlns:xlink="http://www.w3.org/1999/xlink" width="32" height="32"><path d="M549.479399 746.787715h354.491817v62.464999H549.479399z" fill="#515151" p-id="7445"></path><path d="M741.56082 952.402919l-40.081858-48.410724 153.560039-125.97198-153.560039-125.971981 40.081858-48.410724L952.902431 778.020215 741.56082 952.402919z m48.410723-555.421596h-301.395668V95.585655h62.465998v238.930669h238.92967v62.464999z m-316.490926 388.847266h-54.137132l-50.492691-188.95847-50.492691 188.95847h-55.178115l-59.86254-252.984944h52.054166l38.520382 173.862213 45.808265-173.862213h60.903524L444.850576 709.307317l39.040874-176.464671h51.533674l-61.944507 252.984944zM203.317448 256.434576H417.78201v62.464999H203.317448v-62.464999z m0 125.450489H417.78201v62.465998H203.317448v-62.465998z" fill="#515151" p-id="7446"></path><path d="M131.4816 890.977904V132.02407h390.930232l233.724753 233.724753v163.450381h62.985491V339.721241L548.438416 69.558072H69.537093v883.88583h528.354029v-62.465998z" fill="#515151" p-id="7447"></path></svg>