<?xml version="1.0" standalone="no"?><!DOCTYPE svg PUBLIC "-//W3C//DTD SVG 1.1//EN" "http://www.w3.org/Graphics/SVG/1.1/DTD/svg11.dtd"><svg t="1733147884810" class="icon" viewBox="0 0 1144 1024" version="1.1" xmlns="http://www.w3.org/2000/svg" p-id="6422" xmlns:xlink="http://www.w3.org/1999/xlink" width="35.75" height="32"><path d="M852.273292 0h6.360248c57.242236 6.360248 95.403727 44.521739 95.403727 95.403727v203.52795c0 19.080745-19.080745 31.801242-38.161491 31.801242s-38.161491-12.720497-38.16149-31.801242V101.763975c0-12.720497-12.720497-19.080745-19.080746-19.080745h-636.024844c-12.720497 0-19.080745 12.720497-19.080746 19.080745v171.726708h197.167702c31.801242 0 63.602484 25.440994 63.602485 63.602485v324.372671c0 31.801242-25.440994 63.602484-63.602485 63.602484H203.52795v203.52795c0 12.720497 12.720497 19.080745 19.080746 19.080746h629.664596c12.720497 0 25.440994-6.360248 25.440994-19.080746v-190.807453c0-19.080745 19.080745-38.161491 38.16149-38.161491s38.161491 12.720497 38.161491 31.801242v190.807454c0 50.881988-38.161491 95.403727-95.403727 101.763975H235.329193c-50.881988-6.360248-89.043478-44.521739-95.403727-95.403727V718.708075h-57.242236c-31.801242 0-63.602484-25.440994-63.602485-63.602485V330.732919c0-31.801242 25.440994-63.602484 63.602485-63.602484h57.242236V95.403727C139.925466 44.521739 178.086957 6.360248 228.968944 0H852.273292z m-95.403727 279.850932c12.720497-12.720497 31.801242-12.720497 38.161491-12.720497 12.720497 6.360248 25.440994 19.080745 25.440994 31.801242v89.043478c89.043478 0 152.645963 31.801242 203.52795 89.043479 57.242236 63.602484 82.68323 171.726708 69.962733 286.21118 0 6.360248-6.360248 19.080745-19.080745 19.080745h-6.360249c-6.360248 0-19.080745 0-19.080745-12.720497-50.881988-101.763975-89.043478-171.726708-228.968944-178.086956v76.322981c0 6.360248-6.360248 25.440994-19.080746 31.801242-19.080745 12.720497-44.521739 0-50.881987-6.360248-50.881988-38.161491-89.043478-69.962733-120.844721-89.043479-95.403727-82.68323-108.124224-89.043478-108.124223-114.484472 0-19.080745 12.720497-31.801242 114.484472-114.484472 31.801242-25.440994 69.962733-57.242236 120.84472-95.403726z m12.720497 44.521739c-38.161491 38.161491-76.322981 63.602484-101.763975 89.043478-50.881988 44.521739-82.68323 69.962733-95.403727 82.68323 6.360248 6.360248 38.161491 31.801242 89.043479 69.962733 25.440994 19.080745 63.602484 44.521739 108.124223 82.68323V566.062112c0-12.720497 12.720497-25.440994 25.440994-25.440994 139.925466 0 203.52795 57.242236 254.409938 133.565217 0-57.242236-19.080745-120.84472-63.602485-171.726708-44.521739-44.521739-108.124224-69.962733-190.807453-69.962733-6.360248 0-12.720497 0-19.080745-6.360248 0-6.360248-6.360248-12.720497-6.360249-19.080745V324.372671zM127.204969 381.614907h-38.161491l63.602485 241.689441H190.807453l44.52174-190.807454 44.521739 190.807454H318.012422L381.614907 381.614907h-31.801242l-44.52174 190.807453-44.521739-190.807453h-38.16149l-44.521739 190.807453L127.204969 381.614907z" p-id="6423"></path></svg>