<?xml version="1.0" standalone="no"?><!DOCTYPE svg PUBLIC "-//W3C//DTD SVG 1.1//EN" "http://www.w3.org/Graphics/SVG/1.1/DTD/svg11.dtd"><svg t="1717639347820" class="icon" viewBox="0 0 1024 1024" version="1.1" xmlns="http://www.w3.org/2000/svg" p-id="7143" xmlns:xlink="http://www.w3.org/1999/xlink" width="16" height="16"><path d="M960 672v128c0 89.6-70.4 160-160 160h-576C134.4 960 64 889.6 64 800v-576C64 134.4 134.4 64 224 64h128c19.2 0 32 12.8 32 32s-12.8 32-32 32h-128C172.8 128 128 172.8 128 224v576c0 51.2 44.8 96 96 96h576c51.2 0 96-44.8 96-96v-128c0-19.2 12.8-32 32-32s32 12.8 32 32zM800 576c19.2 0 32-12.8 32-32s-12.8-32-32-32H556.8l326.4-326.4c12.8-12.8 12.8-32 0-44.8s-32-12.8-44.8 0L512 467.2V224c0-19.2-12.8-32-32-32s-32 12.8-32 32V576h352z" fill="#515151" p-id="7144"></path></svg>