<?xml version="1.0" standalone="no"?><!DOCTYPE svg PUBLIC "-//W3C//DTD SVG 1.1//EN" "http://www.w3.org/Graphics/SVG/1.1/DTD/svg11.dtd"><svg t="1733147926167" class="icon" viewBox="0 0 1024 1024" version="1.1" xmlns="http://www.w3.org/2000/svg" p-id="8569" xmlns:xlink="http://www.w3.org/1999/xlink" width="32" height="32"><path d="M968.5 667.7H837.8v-91.5L601.3 713.4l236.5 136v-90.2h130.7z" fill="#353535" p-id="8570"></path><path d="M883.6 222L769.9 108.3C745 83.5 696.7 63.9 661.4 63.9h-383c-35.3 0-64 28.8-64 64V256h51V125.3c0-6.5 6.5-13.1 13.1-13.1h381.6c3.9 0 7.8 0 13.1 1.3v202.6h202.6c1.3 5.2 1.3 30.1 1.3 34v287.5l51 1.4V351.4c-0.1-35.3-21-104.6-44.5-129.4z m-159.5 44.4V135.7c3.9 2.6 6.5 5.2 9.1 7.8L847 257.3c2.6 2.6 5.2 5.2 7.8 9.1H724.1z" fill="#353535" p-id="8571"></path><path d="M601.3 381.5h209.1v60.1H601.3v-60.1zM877 895.1c0 6.5-6.5 13.1-13.1 13.1H278.4c-6.5 0-13.1-6.5-13.1-13.1V852h-51v43.1c0 35.3 28.8 64 64 64h586.8c35.3 0 64-28.8 64-64V787.9l-51 0.1v107.1H877zM542.4 314.8H64.1v478.4h478.4V314.8zM368.6 689.9l-65.3-96.7-28.8 44.4h28.8v53.6H156.9l107.2-156.8L170 393.2h78.4l56.2 82.3 56.2-82.3h78.4l-94.1 141.2 107.2 156.8h-83.6l-0.1-1.3z m232.7-189.5h209.1v60.1H601.3v-60.1z" fill="#353535" p-id="8572"></path></svg>