<?xml version="1.0" standalone="no"?><!DOCTYPE svg PUBLIC "-//W3C//DTD SVG 1.1//EN" "http://www.w3.org/Graphics/SVG/1.1/DTD/svg11.dtd"><svg t="1704781835092" class="icon" viewBox="0 0 1024 1024" version="1.1" xmlns="http://www.w3.org/2000/svg" p-id="7612" width="32" height="32" xmlns:xlink="http://www.w3.org/1999/xlink"><path d="M512 1024C230.4 1024 0 793.6 0 512S230.4 0 512 0s512 230.4 512 512-230.4 512-512 512z m0-938.666667C277.333333 85.333333 85.333333 277.333333 85.333333 512s192 426.666667 426.666667 426.666667 426.666667-192 426.666667-426.666667S746.666667 85.333333 512 85.333333z" p-id="7613"></path><path d="M708.266667 375.466667c-17.066667-17.066667-44.8-17.066667-59.733334 0l-181.333333 181.333333-91.733333-91.733333c-14.933333-14.933333-40.533333-14.933333-55.466667 0l-6.4 4.266666c-14.933333 14.933333-14.933333 40.533333 0 55.466667l125.866667 125.866667c14.933333 14.933333 40.533333 14.933333 55.466666 0l4.266667-4.266667 209.066667-209.066667c17.066667-17.066667 17.066667-44.8 0-61.866666z" p-id="7614"></path></svg>