<svg t="1731985324837" class="icon" viewBox="0 0 1024 1024" version="1.1" xmlns="http://www.w3.org/2000/svg" p-id="2001" width="16" height="16"><path d="M683.7 922.7h-345c-73.5 0-133.3-59.8-133.3-133.3V459.8c0-73.5 59.8-133.3 133.3-133.3h345c73.5 0 133.3 59.8 133.3 133.3v329.6c0 73.5-59.8 133.3-133.3 133.3z m-345-506.9c-24.3 0-44.1 19.8-44.1 44.1v329.6c0 24.3 19.8 44.1 44.1 44.1h345c24.3 0 44.1-19.8 44.1-44.1V459.8c0-24.3-19.8-44.1-44.1-44.1h-345zM914.3 759.6c-24.6 0-44.6-20-44.6-44.6V534.3c0-24.6 20-44.6 44.6-44.6s44.6 20 44.6 44.6V715c0 24.7-20 44.6-44.6 44.6zM111.7 759.6c-24.6 0-44.6-20-44.6-44.6V534.3c0-24.6 20-44.6 44.6-44.6s44.6 20 44.6 44.6V715c0 24.7-19.9 44.6-44.6 44.6z" fill="#515151" p-id="2002"></path><path d="M511.2 415.8c-24.6 0-44.6-20-44.6-44.6V239.3c0-24.6 20-44.6 44.6-44.6s44.6 20 44.6 44.6v131.9c0 24.6-20 44.6-44.6 44.6z" fill="#515151" p-id="2003"></path><path d="M511.2 276.6c-49.2 0-89.2-40-89.2-89.2s40-89.2 89.2-89.2 89.2 40 89.2 89.2-40 89.2-89.2 89.2z m0-89.2h0.2-0.2z m0 0h0.2-0.2z m0 0h0.2-0.2z m0 0h0.2-0.2z m0 0z m0 0h0.2-0.2z m0 0h0.2-0.2z m0-0.1h0.2-0.2zM399 675.5c-28.1 0-50.9-22.8-50.9-50.9 0-28.1 22.8-50.9 50.9-50.9s50.9 22.8 50.9 50.9c0 28.1-22.8 50.9-50.9 50.9zM622.9 675.5c-28.1 0-50.9-22.8-50.9-50.9 0-28.1 22.8-50.9 50.9-50.9 28.1 0 50.9 22.8 50.9 50.9 0 28.1-22.8 50.9-50.9 50.9z" fill="#515151" p-id="2004"></path></svg>