<?xml version="1.0" standalone="no"?><!DOCTYPE svg PUBLIC "-//W3C//DTD SVG 1.1//EN" "http://www.w3.org/Graphics/SVG/1.1/DTD/svg11.dtd"><svg t="1733147836538" class="icon" viewBox="0 0 1024 1024" version="1.1" xmlns="http://www.w3.org/2000/svg" p-id="4315" xmlns:xlink="http://www.w3.org/1999/xlink" width="32" height="32"><path d="M876.893082 63.83998 876.893082 63.83998l20.440541 0c34.500768 0 62.489216 30.402427 62.489216 64.918545l0 100.941993-0.12996 0c0 16.569374-11.354606 22.409382-22.854521 22.409382s-22.854521-7.734148-22.854521-19.234063c0-0.210801-3.919263-0.372483-3.919263-0.583285l0-82.71998c0-22.99983-10.56052-35.974329-33.561373-35.974329l-32.781614 0 0 0-28.686343 0c-0.209778 0-1.360997-2.786463-1.555425-2.786463-11.499915 0-21.816888-12.213159-21.816888-23.713075s18.885116-20.813025 18.885116-20.813025l0-2.445702L876.893082 63.83998zM213.449905 66.285682l0-2.445702-66.344011 0 0 0L126.535393 63.83998c-34.499745 0-62.359256 30.402427-62.359256 64.918545l0 100.941993 0 0c0 16.569374 9.329483 22.409382 20.829398 22.409382s24.927739-8.528234 24.927739-20.028149c0-0.210801 4.001127 0.421602 4.001127 0.210801l0-82.71998c0-22.99983 10.431583-35.974329 33.431414-35.974329l49.499367 0 0 0 13.508665 0c0.194428 0 0.372483-2.786463 0.583285-2.786463 11.499915 0 22.060435-10.771321 22.060435-22.26305C233.016543 77.048817 230.036675 66.285682 213.449905 66.285682zM230.036675 567.026244l0-0.61603L230.036675 246.269893l-33.172517 0 0 320.140321 0 0.61603 0 210.008015 33.172517 0L230.036675 567.026244zM109.933273 795.140639c0-11.499915-11.369955-21.575388-22.870894-21.575388S64.175113 777.033235 64.175113 793.617959l0 0 0 105.637945c0 34.500768 27.859511 60.223616 62.359256 60.223616l70.328765 0 0 0 13.508665 0c0.194428 0 0.372483 0.679475 0.583285 0.679475 11.499915 0 22.060435-9.03784 22.060435-20.537755s-2.979868-20.537755-19.566638-20.537755l0 7.223518-66.344011 0 0-6.737448c-33.172517-2.623757-33.172517-19.922748-33.172517-41.139979l0-82.703607C113.933377 795.513122 109.933273 795.335067 109.933273 795.140639zM296.380686 567.026244l0-0.61603L296.380686 246.269893l-16.585747 0 0 320.140321 0 0.61603L279.794939 694.101431l16.585747 0L296.380686 567.026244zM312.966433 727.274972l-33.172517 0 0 49.758264 33.172517 0L312.966433 727.274972zM379.310444 567.026244l0-0.61603L379.310444 246.269893 362.724697 246.269893l0 320.140321 0 0.61603L362.724697 694.101431l16.585747 0L379.310444 567.026244zM395.89619 727.274972 362.724697 727.274972l0 49.758264 33.171494 0L395.89619 727.274972zM478.826971 567.026244l0-0.61603L478.826971 246.269893l-66.344011 0 0 320.140321 0 0.61603L412.482961 694.101431l66.344011 0L478.826971 567.026244zM478.826971 777.033235l0-49.758264-33.172517 0 0 49.758264L478.826971 777.033235zM611.514993 567.026244l0-0.61603L611.514993 246.269893l-49.758264 0 0 320.140321 0 0.61603L561.756729 694.101431l49.758264 0L611.514993 567.026244zM528.585235 777.033235l33.171494 0 0-49.758264-33.171494 0L528.585235 777.033235zM661.273257 566.410214 661.273257 246.269893l-16.584724 0 0 320.140321 0 0.61603L644.688533 694.101431l16.584724 0L661.273257 567.026244 661.273257 566.410214zM628.101763 777.033235l33.171494 0 0-49.758264-33.171494 0L628.101763 777.033235zM744.205061 566.410214 744.205061 246.269893l-16.58677 0 0 320.140321 0 0.61603L727.618291 694.101431l16.58677 0L744.205061 567.026244 744.205061 566.410214zM711.031521 777.033235l33.17354 0 0-49.758264-33.17354 0L711.031521 777.033235zM827.134819 567.026244l0-0.61603L827.134819 246.269893l-33.171494 0 0 320.140321 0 0.61603 0 210.008015 33.171494 0L827.134819 567.026244zM897.3326 959.479521c34.500768 0 62.489216-25.722848 62.489216-60.223616L959.821817 793.617959l-0.12996 0c0-16.584724-9.329483-20.052708-20.829398-20.052708s-24.879644 9.68764-24.879644 21.187555c0 0.226151-3.919263 0.759293-3.919263 0.971118l0 82.703607c0 20.700461 0 37.738509-33.171494 40.978297l0 6.89913-66.345034 0 0-7.223518c0 0-18.885116 9.329483-18.885116 20.829398s10.316973 20.246113 21.816888 20.246113c0.193405 0 1.344624-0.679475 1.555425-0.679475l28.686343 0 0 0L897.3326 959.477474z" p-id="4316"></path></svg>