<svg t="1732255262904" class="icon" viewBox="0 0 1024 1024" version="1.1" xmlns="http://www.w3.org/2000/svg" p-id="8990" width="16" height="16"><path d="M639.77984 748.449304a31.34893 31.34893 0 0 0 8.317063-1.151594l223.920928-63.977407c17.081968-4.862283 27.190398-23.543686 22.648002-41.777248-4.606373-18.233561-22.136183-28.981766-39.154174-24.119483l-223.920927 63.977408c-17.081968 4.862283-27.190398 23.543686-22.648003 41.777248a32.244614 32.244614 0 0 0 30.837111 25.271076z m0-170.499792a31.34893 31.34893 0 0 0 8.317063-1.151594l223.920928-63.977408c17.081968-4.862283 27.190398-23.607664 22.648002-41.777247-4.606373-18.233561-22.136183-28.981766-39.154174-24.119483l-223.920927 63.977408a34.419845 34.419845 0 0 0-22.71198 41.777247c3.838644 15.290601 16.762081 25.271076 30.901088 25.271077z m0-170.435815a31.34893 31.34893 0 0 0 8.317063-1.151594l223.920928-63.977408c17.081968-4.862283 27.190398-23.543686 22.648002-41.777247-4.606373-18.233561-22.136183-29.045743-39.154174-24.119483l-223.920927 63.977408c-17.145945 4.862283-27.254376 23.543686-22.71198 41.777248 3.838644 15.226623 16.762081 25.271076 30.901088 25.271076z m319.88704 418.86009l-415.853152 118.806046V197.411889L959.66688 78.605842v747.767945z m-479.83056 118.742069L63.983168 826.373787V78.605842L479.83632 197.411889v747.703967zM1011.104716 7.143078a30.261314 30.261314 0 0 0-27.766195-5.885922L511.825024 135.9296 40.24755 1.257156a30.005404 30.005404 0 0 0-27.702218 5.885922A34.739733 34.739733 0 0 0 0.00576 34.205521V852.540547a33.908026 33.908026 0 0 0 23.735618 32.948365l479.83056 137.039608a30.261314 30.261314 0 0 0 16.506171 0l479.83056-137.039608A33.908026 33.908026 0 0 0 1023.644288 852.540547V34.205521a34.739733 34.739733 0 0 0-12.539572-27.062443zM151.696194 683.320303l223.920928 63.977407a31.029043 31.029043 0 0 0 8.317063 1.151594 32.372568 32.372568 0 0 0 30.837111-25.271076c4.542396-18.169584-5.566034-36.914964-22.648003-41.777248l-223.920927-63.977408c-16.954013-4.798306-34.5478 5.949899-39.154174 24.183461-4.542396 18.169584 5.566034 36.850987 22.648002 41.71327z m0-170.499793l223.920928 63.977408A28.278014 28.278014 0 0 0 383.870208 577.949512a32.372568 32.372568 0 0 0 30.837111-25.271077c4.542396-18.169584-5.566034-36.914964-22.648003-41.777247l-223.920928-63.977408c-16.890036-4.798306-34.483823 5.949899-39.090196 24.18346-4.542396 18.169584 5.566034 36.850987 22.648002 41.71327z m0-170.435815l223.920928 63.977408A30.581201 30.581201 0 0 0 383.870208 407.513697a32.372568 32.372568 0 0 0 30.837111-25.271076c4.542396-18.169584-5.566034-36.914964-22.648003-41.777248l-223.920928-63.977408c-16.890036-4.862283-34.483823 5.885922-39.090196 24.119483-4.542396 18.169584 5.566034 36.914964 22.648002 41.777247z" fill="#515151" p-id="8991"></path></svg>