<?xml version="1.0" standalone="no"?><!DOCTYPE svg PUBLIC "-//W3C//DTD SVG 1.1//EN" "http://www.w3.org/Graphics/SVG/1.1/DTD/svg11.dtd"><svg t="1731468009721" class="icon" viewBox="0 0 1024 1024" version="1.1" xmlns="http://www.w3.org/2000/svg" p-id="4260" width="32" height="32" xmlns:xlink="http://www.w3.org/1999/xlink"><path d="M877.141333 0.938667H146.773333c-80.810667 0-145.92 65.109333-145.92 145.92v730.282666c0 80.810667 65.706667 145.92 145.92 145.92h730.282667c80.810667 0 145.92-65.706667 145.92-145.92V146.773333c0-80.810667-65.109333-145.92-145.92-145.92z m-581.12 75.178666h433.237334V363.52H295.936V76.117333z m654.336 801.024c0 19.626667-7.594667 37.888-21.418666 51.797334a72.618667 72.618667 0 0 1-51.797334 21.418666H146.773333a72.618667 72.618667 0 0 1-51.797333-21.418666 71.594667 71.594667 0 0 1-21.418667-51.797334V146.773333A73.386667 73.386667 0 0 1 146.773333 73.642667h73.386667v291.84c0 19.626667 7.509333 37.888 21.333333 51.797333a72.277333 72.277333 0 0 0 51.2 21.418667H731.306667c19.626667 0 37.888-7.594667 51.797333-21.418667a72.618667 72.618667 0 0 0 21.418667-51.797333V74.24h72.704c19.626667 0 37.888 7.594667 51.797333 21.504a72.618667 72.618667 0 0 1 21.418667 51.797333v729.6z" fill="#13227a" p-id="4261"></path><path d="M582.826667 140.544c-20.906667 0-37.973333 17.066667-37.973334 37.973333v73.216c0 20.821333 17.066667 37.888 37.888 37.888 10.154667 0 19.626667-3.754667 26.538667-11.349333a38.997333 38.997333 0 0 0 11.349333-26.453333v-73.386667c0-20.821333-17.066667-37.888-37.888-37.888z" fill="#13227a" p-id="4262"></path></svg>